# xmcd
#
# Track frame offsets:
#	150
#	15372
#	30291
#	52313
#	66164
#	91922
#	96442
#	119339
#	139623
#	158917
#	174129
#	196479
#	219203
#	244366
#	261919
#
# Disc length: 3713 seconds
#
# Revision: 1735288173
# Processed by: cddbd v1.5.2PL0 Copyright (c) Steve Scherf et al.
# Submitted via: EZCDAudioConverter 8.5.0.1
#
DISCID=ca0e7f0f
DTITLE=R.E.M. - Monster: 25th Anniversary Edition 2/5
DYEAR=2019
DGENRE=
TTITLE0=Pete's Hit
TTITLE1=Uptempo Mo Distortion
TTITLE2=Uptempo Ricky
TTITLE3=Harlan County With Whistling
TTITLE4=Lost Song
TTITLE5=AM Boo
TTITLE6=Mike's Gtr
TTITLE7=Sputnik 1 Remix
TTITLE8=Black Sky 4-14
TTITLE9=Revolution 4-21
TTITLE10=Rocker With Vocal
TTITLE11=Time Is On Mike's Side
TTITLE12=Experiment 4-28 No Vocal
TTITLE13=Highland Fling 4-29
TTITLE14=Cranky 4-29
EXTD=
EXTT0=
EXTT1=
EXTT2=
EXTT3=
EXTT4=
EXTT5=
EXTT6=
EXTT7=
EXTT8=
EXTT9=
EXTT10=
EXTT11=
EXTT12=
EXTT13=
EXTT14=
PLAYORDER=
